<?xml version="1.0" encoding="UTF-8" standalone="no"?>
<!DOCTYPE svg PUBLIC "-//W3C//DTD SVG 1.1//EN" "http://www.w3.org/Graphics/SVG/1.1/DTD/svg11.dtd">
<svg width="100%" height="100%" viewBox="0 0 1080 1080" version="1.1" xmlns="http://www.w3.org/2000/svg" xmlns:xlink="http://www.w3.org/1999/xlink" xml:space="preserve" xmlns:serif="http://www.serif.com/" style="fill-rule:evenodd;clip-rule:evenodd;stroke-linejoin:round;stroke-miterlimit:2;">
    <rect x="0" y="0" width="1080" height="1080" style="fill:rgb(3,7,18);"/>
    <g transform="matrix(1.03462,0,0,1.04743,-37.3869,-51.2286)">
        <path d="M238.356,824.795C214.991,824.795 196.991,820.321 184.355,811.372C171.719,802.423 165.401,790.413 165.401,775.341C165.401,762.153 170.05,752.027 179.348,744.962C188.646,737.897 199.494,734.365 211.892,734.365C224.289,734.365 235.256,737.073 244.793,742.489C254.329,747.906 263.151,757.208 271.257,770.396L284.131,792.297C286.515,795.594 289.495,797.242 293.071,797.242C296.648,797.242 299.151,795.123 300.581,790.884C303.442,781.464 305.469,767.688 306.661,749.554C307.853,731.421 308.449,709.402 308.449,683.498C308.449,653.825 307.734,615.675 306.303,569.047C304.873,522.418 303.442,464.957 302.012,396.663C302.012,376.411 294.383,363.694 279.124,358.513L262.674,352.861L262.674,345.796L450.067,345.796L450.067,352.861L434.331,358.513C425.749,361.81 419.907,366.167 416.808,371.583C413.709,376.999 412.159,384.653 412.159,394.544L412.159,534.429C412.159,580.586 410.013,618.736 405.722,648.88C401.43,679.023 394.516,705.163 384.98,727.3C373.059,758.856 353.628,782.995 326.688,799.715C299.747,816.435 270.303,824.795 238.356,824.795Z" style="fill:rgb(243,244,246);fill-rule:nonzero;"/>
        <path d="M477.246,812.079L477.246,805.014L491.551,799.362C501.087,796.065 507.405,791.59 510.504,785.938C513.604,780.287 515.154,772.986 515.154,764.037L515.154,394.544C515.154,385.124 513.604,377.588 510.504,371.936C507.405,366.284 501.087,361.81 491.551,358.513L477.246,352.861L477.246,345.796L658.917,345.796L658.917,352.861L646.758,357.806C637.698,361.103 631.499,365.46 628.162,370.876C624.824,376.293 623.155,383.711 623.155,393.131L623.826,556.699L794.097,556.344L794.097,393.131C794.097,383.711 792.548,376.293 789.448,370.876C786.349,365.46 780.031,361.103 770.494,357.806L757.62,352.861L757.62,345.796L940.006,345.796L940.006,352.861L925.701,358.513C916.642,361.81 910.443,366.284 907.105,371.936C903.767,377.588 902.098,385.124 902.098,394.544L902.098,764.037C902.098,772.986 903.767,780.287 907.105,785.938C910.443,791.59 916.642,796.065 925.701,799.362L940.006,805.014L940.006,812.079L757.62,812.079L757.62,805.014L770.494,800.775C780.031,797.007 786.349,792.415 789.448,786.998C792.548,781.582 794.097,774.164 794.097,764.744L794.333,587.973L623.007,587.627L623.155,764.744C623.155,782.171 631.022,794.181 646.758,800.775L658.917,805.014L658.917,812.079L477.246,812.079Z" style="fill:rgb(243,244,246);fill-rule:nonzero;"/>
    </g>
</svg>
