<?xml version="1.0" encoding="UTF-8" standalone="no"?>
<!DOCTYPE svg PUBLIC "-//W3C//DTD SVG 1.1//EN" "http://www.w3.org/Graphics/SVG/1.1/DTD/svg11.dtd">
<svg width="100%" height="100%" viewBox="0 0 1080 1080" version="1.1" xmlns="http://www.w3.org/2000/svg" xmlns:xlink="http://www.w3.org/1999/xlink" xml:space="preserve" xmlns:serif="http://www.serif.com/" style="fill-rule:evenodd;clip-rule:evenodd;stroke-linejoin:round;stroke-miterlimit:2;">
    <rect x="0" y="0" width="1080" height="1080" style="fill:rgb(3,7,18);"/>
    <g transform="matrix(1,0,0,1,-36.1359,-48.9087)">
        <g transform="matrix(740,0,0,740,164.696,848.279)">
            <path d="M0.109,0.018C0.076,0.018 0.051,0.012 0.034,-0.001C0.016,-0.014 0.007,-0.031 0.007,-0.052C0.007,-0.071 0.014,-0.085 0.027,-0.095C0.04,-0.105 0.055,-0.11 0.072,-0.11C0.089,-0.11 0.105,-0.106 0.118,-0.099C0.131,-0.091 0.144,-0.078 0.155,-0.059L0.173,-0.028C0.176,-0.023 0.181,-0.021 0.186,-0.021C0.191,-0.021 0.194,-0.024 0.196,-0.03C0.2,-0.043 0.203,-0.063 0.205,-0.089C0.206,-0.114 0.207,-0.145 0.207,-0.182C0.207,-0.224 0.206,-0.278 0.204,-0.344C0.202,-0.41 0.2,-0.491 0.198,-0.588C0.198,-0.617 0.187,-0.635 0.166,-0.642L0.143,-0.65L0.143,-0.66L0.405,-0.66L0.405,-0.65L0.383,-0.642C0.371,-0.637 0.363,-0.631 0.359,-0.624C0.354,-0.616 0.352,-0.605 0.352,-0.591L0.352,-0.393C0.352,-0.328 0.349,-0.274 0.343,-0.231C0.337,-0.188 0.327,-0.151 0.314,-0.12C0.297,-0.075 0.27,-0.041 0.233,-0.018C0.195,0.006 0.154,0.018 0.109,0.018Z" style="fill:rgb(243,244,246);fill-rule:nonzero;"/>
        </g>
        <g transform="matrix(740,0,0,740,476.236,848.279)">
            <path d="M0.022,-0L0.022,-0.01L0.042,-0.018C0.055,-0.023 0.064,-0.029 0.069,-0.037C0.073,-0.045 0.075,-0.055 0.075,-0.068L0.075,-0.591C0.075,-0.604 0.073,-0.615 0.069,-0.623C0.064,-0.631 0.055,-0.637 0.042,-0.642L0.022,-0.65L0.022,-0.66L0.276,-0.66L0.276,-0.65L0.259,-0.643C0.246,-0.638 0.238,-0.632 0.233,-0.625C0.228,-0.617 0.226,-0.606 0.226,-0.593L0.226,-0.35L0.465,-0.35L0.465,-0.593C0.465,-0.606 0.463,-0.617 0.459,-0.625C0.454,-0.632 0.445,-0.638 0.432,-0.643L0.414,-0.65L0.414,-0.66L0.669,-0.66L0.669,-0.65L0.649,-0.642C0.636,-0.637 0.628,-0.631 0.623,-0.623C0.618,-0.615 0.616,-0.604 0.616,-0.591L0.616,-0.068C0.616,-0.055 0.618,-0.045 0.623,-0.037C0.628,-0.029 0.636,-0.023 0.649,-0.018L0.669,-0.01L0.669,-0L0.414,-0L0.414,-0.01L0.432,-0.016C0.445,-0.021 0.454,-0.028 0.459,-0.036C0.463,-0.043 0.465,-0.054 0.465,-0.067L0.465,-0.33L0.226,-0.33L0.226,-0.067C0.226,-0.042 0.237,-0.025 0.259,-0.016L0.276,-0.01L0.276,-0L0.022,-0Z" style="fill:rgb(243,244,246);fill-rule:nonzero;"/>
        </g>
    </g>
</svg>
