<?xml version="1.0" encoding="UTF-8" standalone="no"?><!DOCTYPE svg PUBLIC "-//W3C//DTD SVG 1.1//EN" "http://www.w3.org/Graphics/SVG/1.1/DTD/svg11.dtd"><svg width="100%" height="100%" viewBox="0 0 67 67" version="1.1" xmlns="http://www.w3.org/2000/svg" xmlns:xlink="http://www.w3.org/1999/xlink" xml:space="preserve" xmlns:serif="http://www.serif.com/" style="fill-rule:evenodd;clip-rule:evenodd;stroke-linejoin:round;stroke-miterlimit:2;"><path d="M46.879,0.283c0.837,0.485 1.231,1.493 0.946,2.417l-7.504,24.383c-0,0 13.846,0 13.846,0c1.143,0 2.084,0.941 2.084,2.084c-0,0.531 -0.203,1.042 -0.568,1.429l-33.333,35.417c-0.394,0.418 -0.943,0.656 -1.518,0.656c-1.143,-0 -2.083,-0.941 -2.083,-2.084c-0,-0.208 0.031,-0.415 0.093,-0.614l7.504,-24.388c-0,0 -13.847,0 -13.847,0c-1.143,0 -2.083,-0.94 -2.083,-2.083c-0,-0.531 0.203,-1.043 0.567,-1.429l33.334,-35.417c0.661,-0.703 1.728,-0.859 2.562,-0.375l0,0.004Z" style="fill:#5498ec;fill-rule:nonzero;stroke:#fff;stroke-width:0.83px;"/></svg>